<?xml version="1.0" standalone="no"?>
<!DOCTYPE svg PUBLIC "-//W3C//DTD SVG 20010904//EN"
 "http://www.w3.org/TR/2001/REC-SVG-20010904/DTD/svg10.dtd">
<svg version="1.0" xmlns="http://www.w3.org/2000/svg"
 width="325.000000pt" height="325.000000pt" viewBox="0 0 325.000000 325.000000"
 preserveAspectRatio="xMidYMid meet">
<metadata>
Created by potrace 1.11, written by Peter Selinger 2001-2013
</metadata>
<g transform="translate(0.000000,325.000000) scale(0.100000,-0.100000)"
fill="#000000" stroke="none">
<path d="M2517 3208 c-14 -18 -88 -114 -163 -213 -75 -99 -138 -182 -140 -184
-2 -2 -36 10 -76 27 -88 37 -184 67 -270 82 -34 7 -74 14 -87 16 -42 8 -233 8
-309 1 -40 -5 -107 -17 -150 -28 -42 -11 -84 -22 -92 -24 -40 -8 -183 -69
-247 -105 -146 -82 -316 -229 -411 -357 -25 -35 -49 -63 -53 -63 -4 0 -113 45
-244 100 -227 96 -265 109 -265 92 0 -4 84 -70 187 -147 104 -77 197 -148 207
-157 11 -10 23 -18 28 -18 13 0 9 -16 -16 -72 -22 -49 -51 -130 -48 -135 1 -2
-5 -18 -14 -38 -8 -19 -11 -35 -8 -35 4 0 1 -6 -5 -13 -6 -8 -8 -16 -6 -19 3
-3 1 -16 -4 -30 -25 -66 -33 -389 -10 -448 1 -3 1 -8 0 -13 -1 -4 4 -26 9 -50
6 -23 13 -55 16 -72 3 -16 11 -36 16 -42 6 -7 8 -13 5 -13 -8 0 26 -94 63
-175 81 -174 267 -399 412 -498 l56 -39 -20 -46 c-26 -60 -23 -57 -52 -39 -22
15 -25 15 -37 1 -11 -13 -11 -17 1 -24 49 -28 50 -32 25 -85 -14 -27 -24 -53
-25 -56 0 -4 -11 -32 -25 -63 -14 -31 -25 -58 -25 -61 -1 -2 -12 -28 -25 -57
-26 -56 -31 -78 -16 -78 4 0 61 70 126 155 91 119 121 153 131 144 9 -8 15 -5
23 10 8 14 8 20 -1 23 -8 3 0 21 21 50 l33 46 84 -34 c186 -75 341 -104 534
-99 74 2 149 6 165 9 17 4 55 11 85 17 147 28 345 115 479 209 96 68 216 184
287 276 l56 73 37 -15 c20 -9 42 -18 49 -21 7 -3 11 -12 8 -19 -7 -17 34 -30
44 -14 5 9 13 9 27 2 23 -13 332 -142 339 -142 2 0 4 6 4 13 0 6 -71 64 -156
127 -86 63 -164 122 -173 130 -9 9 -34 29 -56 45 -22 15 -42 30 -44 31 -2 2 1
9 6 16 11 15 71 162 78 193 2 11 9 40 16 65 30 123 34 159 33 310 0 145 -8
225 -31 310 -4 14 -8 32 -9 40 -9 52 -79 218 -122 290 -14 25 -27 47 -27 50
-1 15 -123 167 -182 227 -63 65 -165 152 -200 171 -15 9 28 121 170 443 30 69
22 95 -16 47z m-677 -317 c94 -19 201 -51 277 -82 l72 -31 -167 -220 c-92
-121 -218 -288 -281 -371 -68 -89 -117 -145 -119 -136 -3 8 -29 73 -59 144
-30 72 -95 227 -145 345 -88 212 -116 266 -104 205 7 -39 12 -79 26 -190 18
-153 22 -180 26 -187 2 -3 6 -35 9 -70 7 -90 35 -300 41 -310 3 -5 -9 -3 -28
5 -204 85 -300 126 -523 220 -143 60 -270 113 -283 118 -19 8 -21 12 -12 30 6
11 19 29 28 39 9 10 25 28 35 41 71 96 236 234 363 305 129 72 325 136 459
150 33 4 62 8 64 10 8 7 271 -5 321 -15z m580 -259 c85 -69 211 -202 248 -264
9 -16 20 -28 24 -28 4 0 8 -4 8 -9 0 -5 16 -36 34 -68 38 -63 109 -223 99
-223 -3 0 -1 -6 4 -12 6 -7 16 -35 22 -63 11 -47 15 -65 27 -122 12 -59 24
-271 16 -287 -3 -5 -6 -29 -8 -55 -5 -76 -13 -123 -29 -181 -9 -30 -18 -62
-20 -70 -2 -8 -4 -16 -4 -17 -1 -2 -1 -5 -1 -8 1 -3 -5 -18 -13 -33 -8 -15
-24 -49 -36 -75 l-21 -48 -368 277 c-202 152 -368 278 -369 278 -3 2 231 101
522 221 116 48 212 90 215 92 4 5 -74 -2 -140 -12 -14 -2 -50 -6 -80 -10 -30
-4 -66 -8 -80 -10 -14 -2 -50 -7 -80 -10 -30 -4 -62 -9 -70 -10 -8 -1 -46 -6
-85 -9 -38 -4 -77 -9 -85 -11 -8 -2 -37 -6 -65 -10 -27 -3 -65 -8 -83 -12 -31
-5 -33 -4 -23 13 6 11 34 75 62 144 46 111 162 386 209 495 9 22 32 75 50 117
38 87 35 87 120 20z m-1781 -559 c86 -65 183 -139 217 -165 l61 -48 -13 -50
c-7 -28 -14 -71 -15 -96 l-3 -46 -54 7 c-62 8 -85 -9 -72 -54 6 -23 12 -26 56
-27 27 -1 55 -2 62 -3 7 -1 12 -17 12 -44 l0 -43 -201 -84 c-183 -77 -247
-109 -187 -95 18 4 410 55 423 55 5 0 36 -82 33 -86 -2 -1 -25 -12 -51 -23
-42 -18 -48 -24 -42 -43 4 -13 15 -31 25 -42 18 -18 19 -18 65 15 46 33 47 33
61 14 7 -11 18 -26 24 -32 6 -7 9 -13 6 -13 -2 0 15 -20 39 -45 42 -43 43 -46
30 -72 -7 -16 -37 -84 -65 -153 -29 -69 -57 -137 -63 -152 -7 -16 -15 -28 -19
-28 -5 0 -7 -3 -6 -7 5 -15 -45 -133 -56 -133 -18 0 -146 107 -219 183 -120
124 -228 308 -282 477 -26 82 -29 95 -40 150 -23 117 -27 450 -5 450 4 0 6 10
5 21 -1 12 7 52 17 88 11 36 21 73 23 81 2 8 9 29 16 45 7 17 13 32 14 35 7
25 36 80 41 80 4 0 78 -53 163 -117z m390 -294 c53 -40 115 -88 139 -107 l43
-35 -153 -63 c-84 -35 -153 -64 -154 -64 0 0 -1 20 -3 45 l-2 45 33 -2 c31 -3
32 -1 33 32 0 33 -2 35 -34 38 l-33 3 5 57 c6 68 17 122 25 122 3 0 48 -32
101 -71z m-143 -133 c36 -1 50 -6 52 -18 3 -14 -2 -16 -27 -8 -16 4 -31 6 -34
4 -9 -9 -97 -14 -97 -5 0 27 13 41 35 35 12 -3 44 -7 71 -8z m318 -382 c-37
-87 -69 -161 -71 -164 -7 -7 -102 100 -109 124 -4 11 -2 22 3 23 6 2 19 11 29
19 14 11 15 17 7 20 -7 3 -13 12 -13 20 0 23 -28 28 -55 10 -14 -9 -25 -14
-25 -11 0 10 -4 20 -16 44 -17 32 -13 37 33 39 21 2 92 11 158 20 66 10 121
17 123 16 1 0 -27 -73 -64 -160z m-169 27 c3 -6 -3 -15 -14 -21 -24 -12 -42 7
-20 21 18 11 26 11 34 0z m-56 -25 c9 -10 3 -19 -29 -41 -39 -27 -41 -28 -54
-9 -13 17 -11 21 27 40 23 12 43 22 43 23 1 0 7 -5 13 -13z m1034 -59 l149
-62 -49 -44 c-64 -58 -95 -79 -100 -65 -2 6 -10 19 -17 29 -10 14 -17 15 -32
7 -47 -27 -47 -28 -29 -56 10 -15 16 -28 14 -30 -10 -8 -71 -37 -73 -34 -2 2
-11 68 -20 148 -10 80 -20 154 -23 164 -6 23 -20 27 180 -57z m-333 -132 c29
-71 57 -135 61 -141 13 -16 0 -24 -43 -24 -37 0 -38 1 -38 36 0 35 -1 35 -37
32 -35 -3 -38 -6 -38 -33 0 -29 -1 -30 -45 -28 -25 1 -66 7 -92 14 l-48 11
107 139 c58 77 109 136 113 132 4 -4 31 -66 60 -138z m754 -44 c132 -56 242
-104 244 -106 4 -4 -19 -44 -40 -70 -159 -193 -337 -326 -543 -407 -90 -35
-111 -41 -245 -68 -77 -16 -125 -19 -255 -16 -164 4 -186 6 -290 32 -52 13
-232 80 -244 90 -3 3 241 330 311 417 l23 28 65 -15 c36 -9 79 -16 96 -16 l30
0 -6 -56 c-6 -58 -4 -62 37 -68 41 -7 53 11 47 69 l-6 55 49 0 c48 0 48 0 67
-48 11 -26 27 -65 37 -87 27 -63 87 -207 99 -239 18 -48 23 -21 11 61 -6 43
-13 101 -16 128 -3 28 -8 59 -10 70 -2 11 -7 50 -10 86 l-7 66 41 20 41 21 21
-49 c23 -54 42 -61 84 -33 21 14 23 19 13 38 -6 11 -14 23 -17 26 -4 3 -14 17
-23 31 -16 25 -15 26 10 42 15 9 49 36 77 62 27 25 54 44 60 41 5 -2 118 -50
249 -105z m-444 0 c7 -14 7 -22 -1 -26 -11 -8 -40 25 -33 37 9 14 23 9 34 -11z
m44 -74 c24 -36 25 -37 6 -47 -17 -9 -22 -5 -40 32 -15 32 -17 44 -8 49 7 5
13 7 15 6 1 -2 13 -19 27 -40z m-404 -53 c-9 -10 -9 -14 -1 -14 6 0 11 -18 11
-45 0 -39 -3 -45 -21 -45 -19 0 -21 4 -14 48 4 26 6 58 6 71 -1 31 23 49 27
20 2 -11 -2 -27 -8 -35z"/>
<path d="M279 2223 c-20 -54 13 -74 36 -21 10 25 10 35 2 40 -20 13 -27 9 -38
-19z"/>
<path d="M230 2093 c-6 -15 -13 -34 -15 -40 -3 -8 5 -13 20 -13 17 0 25 6 25
18 0 10 5 23 11 29 8 8 5 14 -10 22 -19 10 -22 8 -31 -16z"/>
<path d="M194 1962 c-14 -34 -14 -53 2 -59 18 -7 34 12 34 43 0 27 -26 39 -36
16z"/>
<path d="M173 1827 c-5 -7 -10 -24 -11 -39 -1 -22 3 -28 18 -28 11 0 20 3 21
8 5 44 3 62 -7 66 -7 3 -17 -1 -21 -7z"/>
<path d="M157 1683 c-2 -4 -4 -21 -3 -37 1 -21 8 -30 22 -32 17 -3 20 2 19 34
0 25 -6 38 -17 40 -9 2 -18 -1 -21 -5z"/>
<path d="M159 1537 c-1 -7 0 -16 1 -22 1 -5 3 -17 5 -25 1 -8 10 -15 20 -15
19 0 28 34 14 56 -10 17 -39 20 -40 6z"/>
<path d="M177 1394 c-3 -3 -2 -16 3 -29 7 -18 4 -29 -15 -51 -41 -47 -18 -125
40 -136 65 -13 123 59 93 116 -15 27 -39 45 -60 46 -10 0 -17 3 -17 8 5 30 -3
52 -19 52 -10 0 -21 -3 -25 -6z"/>
<path d="M263 1122 c-18 -12 6 -74 27 -70 17 4 20 35 6 61 -12 19 -16 20 -33
9z"/>
<path d="M322 991 c-12 -7 -11 -14 2 -40 18 -33 26 -37 43 -20 8 8 6 19 -6 40
-18 32 -20 33 -39 20z"/>
<path d="M393 869 c-16 -16 14 -71 36 -67 23 5 23 21 -2 51 -17 22 -25 25 -34
16z"/>
<path d="M2751 764 c-21 -24 -23 -54 -4 -54 29 1 59 53 39 69 -9 8 -18 4 -35
-15z"/>
<path d="M472 748 c-17 -17 36 -73 55 -57 10 9 9 17 -8 40 -23 32 -29 35 -47
17z"/>
<path d="M2653 651 c-19 -24 -20 -31 -9 -40 21 -17 72 34 55 55 -16 19 -20 17
-46 -15z"/>
<path d="M567 636 c-6 -15 31 -56 50 -56 21 0 20 27 -2 48 -26 25 -41 28 -48
8z"/>
<path d="M2553 556 c-25 -22 -27 -26 -13 -41 15 -14 18 -13 42 12 22 23 24 30
13 40 -11 11 -19 8 -42 -11z"/>
<path d="M673 539 c-9 -9 -4 -18 18 -36 29 -25 49 -24 49 2 0 13 -36 45 -50
45 -3 0 -11 -5 -17 -11z"/>
<path d="M2438 466 c-25 -21 -28 -46 -5 -46 7 0 25 10 40 23 26 21 27 23 10
33 -15 9 -24 7 -45 -10z"/>
<path d="M2319 393 c-13 -9 -26 -18 -28 -19 -2 -2 2 -10 9 -19 11 -13 15 -13
41 2 32 19 35 26 16 41 -10 9 -20 7 -38 -5z"/>
<path d="M2183 328 c-25 -12 -27 -17 -14 -36 7 -12 33 -7 69 14 1 0 0 9 -4 18
-7 18 -19 19 -51 4z"/>
<path d="M1046 323 c-14 -14 -4 -31 25 -43 26 -11 32 -11 39 0 5 8 7 17 4 21
-6 11 -62 28 -68 22z"/>
<path d="M1940 298 c-11 -12 -20 -28 -20 -35 0 -8 -7 -16 -15 -19 -22 -9 -19
-44 3 -44 11 0 27 -9 37 -20 20 -22 65 -26 97 -9 11 6 26 26 34 45 8 19 18 34
23 34 5 0 7 9 4 21 -3 11 -11 18 -18 15 -7 -2 -21 4 -31 15 -24 27 -87 26
-114 -3z"/>
<path d="M1176 263 c-4 -9 -5 -17 -4 -17 47 -27 78 -27 78 -1 0 16 -6 20 -41
29 -20 4 -29 1 -33 -11z"/>
<path d="M1316 225 c-4 -11 3 -19 20 -25 38 -15 54 -12 54 9 0 31 -63 44 -74
16z"/>
<path d="M1775 221 c-16 -4 -29 -10 -27 -14 1 -4 2 -11 2 -17 0 -5 16 -10 35
-10 28 0 35 4 35 19 0 25 -8 29 -45 22z"/>
<path d="M1460 201 c0 -13 7 -21 18 -22 9 0 25 -2 35 -4 15 -3 22 11 15 33 -2
4 -18 8 -35 10 -28 3 -33 0 -33 -17z"/>
<path d="M1602 193 c2 -13 14 -19 41 -21 32 -3 37 0 37 17 0 18 -6 21 -41 21
-33 0 -40 -3 -37 -17z"/>
</g>
</svg>
